# xmcd CD database file
#
# Track frame offsets:
#	150
#	12587
#	33387
#	48495
#	64760
#	81212
#	100527
#	122532
#	142622
#	163667
#	181687
#	201235
#
# Disc length: 3134 seconds
#
# Revision: 1
# Processed by: cddbd v1.5.1PL0 Copyright (c) Steve Scherf et al.
# Submitted via: CDex 1.51
#
DISCID=930c3c0c
DTITLE=TAKUI - VIVAROCK
DYEAR=2004
DGENRE=Rock
TTITLE0=嘆くも蒼い地球で
TTITLE1=ROCK THE FUTURE
TTITLE2=BE HAPPY
TTITLE3=I'M SICK SO BLUE
TTITLE4=LOVE IS BLIND
TTITLE5=鼓動
TTITLE6=晩秋の都
TTITLE7=蜃気楼
TTITLE8=CRAZY MORE CRAZY
TTITLE9=DO IT BOYS AND GIRLS
TTITLE10=言葉に出来ない
TTITLE11=福岡
EXTD=YEAR: 2004
EXTT0=
EXTT1=
EXTT2=
EXTT3=
EXTT4=
EXTT5=
EXTT6=
EXTT7=
EXTT8=
EXTT9=
EXTT10=
EXTT11=
PLAYORDER=
